<?xml version="1.0" encoding="UTF-8"?><svg id="Layer_1" xmlns="http://www.w3.org/2000/svg" viewBox="0 0 986.12 842.11"><defs><style>.cls-1{fill:#ffcf72;}.cls-2{fill:#ffbf4a;}.cls-3{stroke-width:3px;}.cls-3,.cls-4,.cls-5,.cls-6{fill:none;stroke:#000;stroke-miterlimit:10;}.cls-7{fill:#b4c5ff;}.cls-8{opacity:.13;}.cls-9{fill:#b4f1ff;}.cls-10{fill:#ecff8a;}.cls-11{fill:#dfecff;}.cls-12,.cls-13{opacity:.15;}.cls-14{fill:#dfd6ff;}.cls-4{stroke-linecap:round;stroke-width:5.01px;}.cls-15{opacity:.2;}.cls-13{fill:#8adcff;}.cls-16{fill:#b4ffe4;}.cls-5{stroke-width:1.23px;}.cls-6{stroke-width:1.56px;}</style></defs><path class="cls-13" d="M360.08,841.59s-177.55-66.03-180.1-132.49c-2.56-66.46,95.85-72.85,71.57-173.81s-40.9-134.2-102.24-230.05c-61.35-95.85,80.52-194.26,177.65-199.38,97.13-5.11,232.61,0,194.26-58.79-38.34-58.79,20.45-88.19,168.7,70.29,148.25,158.48,182.76,256.89,130.36,301.62-52.4,44.73-5.11,108.63,42.18,122.69,47.29,14.06,48.86,114.4-20.94,174.14-69.8,59.74-170.77,61.02-137.54,96.8,33.23,35.79-343.9,28.97-343.9,28.97Z"/><rect class="cls-1" x="212.74" y="526.34" width="640.73" height="40.05" rx="8.29" ry="8.29"/><rect class="cls-2" x="778.13" y="691.6" width="30.54" height="126.93" rx="8.88" ry="8.88"/><rect class="cls-2" x="778.4" y="819.26" width="30.54" height="15.43" rx="3.09" ry="3.09"/><rect class="cls-2" x="771.94" y="673.82" width="43.46" height="18.5" rx="4.9" ry="4.9"/><rect class="cls-2" x="768.97" y="599.14" width="46.43" height="74.68" rx="8.39" ry="8.39"/><rect class="cls-2" x="753.36" y="563.1" width="77.65" height="35.32" rx="7.02" ry="7.02"/><rect class="cls-8" x="793.67" y="526.34" width="58.09" height="36.76"/><rect class="cls-8" x="305.51" y="483.74" width="10.01" height="36.76"/><rect class="cls-15" x="792.18" y="567.1" width="38.93" height="36.76"/><rect class="cls-15" x="792.18" y="599.14" width="21.54" height="71.62"/><rect class="cls-15" x="792.18" y="676.46" width="21.54" height="15.86"/><rect class="cls-15" x="793.67" y="692.33" width="15" height="126.21"/><rect class="cls-15" x="793.67" y="818.54" width="15" height="18.15"/><rect class="cls-2" x="257.54" y="691.6" width="30.54" height="130.22" rx="6.53" ry="6.53"/><rect class="cls-2" x="258.98" y="819.9" width="30.54" height="15.43" rx="3.09" ry="3.09"/><rect class="cls-2" x="251.03" y="673.1" width="43.46" height="18.5" rx="4.9" ry="4.9"/><rect class="cls-2" x="250.76" y="596.78" width="46.43" height="77.96" rx="8.58" ry="8.58"/><rect class="cls-2" x="232.77" y="564.74" width="77.65" height="35.32" rx="7.02" ry="7.02"/><rect class="cls-15" x="271.59" y="568.63" width="38.93" height="28.15"/><rect class="cls-15" x="272.76" y="599.14" width="21.54" height="74.9"/><rect class="cls-15" x="272.76" y="673.1" width="21.54" height="15.86"/><rect class="cls-15" x="272.81" y="693.34" width="16.44" height="123.54"/><rect class="cls-15" x="274.25" y="818.54" width="15" height="18.15"/><rect class="cls-10" x="734.24" y="481.77" width="33.07" height="41.7"/><rect class="cls-11" x="430.74" y="409.18" width="220.59" height="97.77"/><rect class="cls-7" x="426.84" y="510.89" width="230.02" height="12.57"/><rect class="cls-12" x="621.29" y="409.18" width="28.76" height="96.92"/><rect class="cls-12" x="755.06" y="479.77" width="12.67" height="43.8"/><rect class="cls-12" x="621.29" y="508.4" width="35.36" height="15.17"/><rect class="cls-14" x="287.19" y="475.28" width="31.84" height="48.45"/><rect class="cls-12" x="306.61" y="477.68" width="10.01" height="45.78"/><path class="cls-16" d="M770.76,246.39h-252.69c-5.93,0-10.73,4.81-10.73,10.73v58.68c0,.62.25,1.16.35,1.76l1.99-4.4,9.37,12.52-2.92.46c.65.12,1.25.39,1.94.39h252.69c5.93,0,10.73-4.81,10.73-10.73v-58.68c0-5.93-4.81-10.73-10.73-10.73ZM590.94,268.72c0-.83.68-1.51,1.51-1.51h86.45c.83,0,1.51.68,1.51,1.51v5.29c0,.83-.68,1.51-1.51,1.51h-86.45c-.83,0-1.51-.68-1.51-1.51v-5.29ZM549.83,306.48c-13.35,0-24.18-10.82-24.18-24.18s10.82-24.18,24.18-24.18,24.18,10.82,24.18,24.18-10.82,24.18-24.18,24.18ZM764.91,298.99c0,1.8-1.46,3.27-3.27,3.27h-168.08c-1.8,0-3.27-1.46-3.27-3.27v-13.41c0-1.8,1.46-3.27,3.27-3.27h168.08c1.8,0,3.27,1.46,3.27,3.27v13.41Z"/><polygon class="cls-16" points="508.45 306.48 504.96 329.64 525.65 324.41 508.45 306.48"/><circle class="cls-9" cx="327.24" cy="125.38" r="25.44"/><circle class="cls-9" cx="382.38" cy="205.58" r="25.44"/><path class="cls-9" d="M304.34,132.38s12.19,33.97,23.83,54.73c10.36,18.47,35.68,35.94,36.18,36.4s26.58-26.91,26.58-26.91l-33.98-36.51-14.59-31.87-38.02,4.15Z"/><line class="cls-4" x1="222.75" y1="836.69" x2="843.46" y2="836.69"/><line class="cls-4" x1="2.5" y1="836.69" x2="182.71" y2="836.69"/><line class="cls-4" x1="883.51" y1="836.69" x2="983.62" y2="836.69"/><rect class="cls-3" x="212.74" y="526.34" width="640.73" height="40.05" rx="7.35" ry="7.35"/><rect class="cls-3" x="232.77" y="566.38" width="80.09" height="32.04" rx="8.09" ry="8.09"/><path class="cls-3" d="M249.91,598.42h45.8v64.83c0,5.44-4.41,9.85-9.85,9.85h-26.09c-5.44,0-9.85-4.41-9.85-9.85v-64.83h0Z"/><rect class="cls-3" x="252.83" y="673.1" width="39.95" height="18.5" rx="7.35" ry="7.35"/><rect class="cls-3" x="256.65" y="818.54" width="32.33" height="15.43" rx="7.35" ry="7.35"/><path class="cls-3" d="M258.43,691.6h28.76v120.81c0,3.38-2.74,6.12-6.12,6.12h-16.51c-3.38,0-6.12-2.74-6.12-6.12v-120.81h0Z"/><rect class="cls-3" x="753.36" y="567.1" width="80.09" height="32.04" rx="8.09" ry="8.09"/><path class="cls-3" d="M770.5,599.14h45.8v64.83c0,5.44-4.41,9.85-9.85,9.85h-26.09c-5.44,0-9.85-4.41-9.85-9.85v-64.83h0Z"/><rect class="cls-3" x="773.43" y="673.82" width="39.95" height="18.5" rx="7.35" ry="7.35"/><rect class="cls-3" x="777.24" y="819.26" width="32.33" height="15.43" rx="7.35" ry="7.35"/><path class="cls-3" d="M779.03,692.33h28.76v120.81c0,3.38-2.74,6.12-6.12,6.12h-16.51c-3.38,0-6.12-2.74-6.12-6.12v-120.81h0Z"/><path class="cls-3" d="M658.36,512.8v12.81h-231.97v-12.81c0-2.4,1.94-4.41,4.28-4.41h223.41c2.33,0,4.28,2,4.28,4.41Z"/><path class="cls-3" d="M652.39,412.49v95.91h-221.65v-95.91c0-2.8,2.2-5.01,5.01-5.01h211.44c2.8,0,5.21,2.2,5.21,5.01Z"/><path class="cls-3" d="M735.03,479.77h31.44c.99,0,1.8.81,1.8,1.8v42.25c0,.99-.81,1.8-1.8,1.8h-31.44c-.99,0-1.8-.81-1.8-1.8v-42.25c0-.99.81-1.8,1.8-1.8Z"/><path class="cls-3" d="M782.28,503.99c0,7.81-6.21,14.22-14.02,14.22v-28.43c7.81,0,14.02,6.41,14.02,14.22Z"/><rect class="cls-3" x="287.19" y="475.28" width="31.84" height="50.26" rx="1.8" ry="1.8"/><path class="cls-6" d="M316.62,466.07l-1.6,9.21h-4.61l1.8-9.81c.2-.6.8-1,1.4-1l2,.4c.6.2,1,.6,1,1.2Z"/><rect class="cls-5" x="294.8" y="460.46" width="7.01" height="14.82"/><line class="cls-5" x1="294.86" y1="464.51" x2="299.21" y2="464.51"/><line class="cls-5" x1="295.16" y1="473.64" x2="299.51" y2="473.64"/><line class="cls-5" x1="294.86" y1="466.91" x2="297.03" y2="466.91"/><line class="cls-5" x1="294.86" y1="469.25" x2="297.03" y2="469.25"/><line class="cls-5" x1="294.86" y1="471.58" x2="297.03" y2="471.58"/><line class="cls-5" x1="294.86" y1="473.92" x2="297.03" y2="473.92"/><path class="cls-3" d="M781.49,260.47v51.6c0,7.67-6.28,13.95-13.95,13.95h-243.76l-18.83,3.63,3.49-17.57v-51.6c0-7.81,6.28-14.08,14.08-14.08h245.02c7.67,0,13.95,6.28,13.95,14.08Z"/><path class="cls-3" d="M408.08,206.83c0,13.88-11.24,25.13-25.13,25.13-5.77,0-11.24-1.96-15.45-5.38,0,0-.1,0-.29-.1-2.44-1.37-22.78-13.1-44.1-47.03-14.18-22.49-19.26-43.9-20.34-48.89v-.39c-.2-.49-.2-.68-.2-.68-.49-1.96-.78-3.91-.78-5.96,0-13.88,11.24-25.13,25.23-25.13s25.13,11.24,25.13,25.13c0,6.45-2.44,12.32-6.36,16.72,4.3,8.31,9.48,17.79,15.25,26.11,4.5,6.45,9.58,11.93,14.47,16.43,2.35-.78,4.89-1.17,7.43-1.17,13.88,0,25.13,11.34,25.13,25.23Z"/></svg>